<?xml version="1.0" standalone="no"?>
<!DOCTYPE svg PUBLIC "-//W3C//DTD SVG 20010904//EN"
 "http://www.w3.org/TR/2001/REC-SVG-20010904/DTD/svg10.dtd">
<svg version="1.0" xmlns="http://www.w3.org/2000/svg"
 width="734.000000pt" height="357.000000pt" viewBox="0 0 734.000000 357.000000"
 preserveAspectRatio="xMidYMid meet">

<g transform="translate(0.000000,357.000000) scale(0.100000,-0.100000)"
fill="#000000" stroke="none">
<path d="M2113 3330 c-58 -12 -112 -42 -154 -87 -49 -51 -63 -80 -111 -236
-122 -397 -206 -557 -338 -646 -118 -78 -149 -49 -159 148 l-6 114 -43 -104
-44 -103 7 -235 8 -236 42 -26 c46 -29 60 -58 40 -86 -13 -17 -16 -17 -59 -2
-40 14 -48 15 -66 2 -32 -22 -21 -53 25 -77 30 -16 41 -28 43 -49 4 -35 -20
-45 -63 -24 -29 14 -35 14 -54 1 -29 -21 -27 -31 15 -67 46 -41 67 -80 51 -96
-15 -15 -43 -14 -71 4 -18 12 -30 13 -50 6 -35 -14 -33 -42 4 -63 61 -35 62
-118 1 -118 -67 0 -71 -7 -136 -220 -25 -85 -51 -160 -56 -167 -22 -25 -41 -2
-37 45 l3 44 -67 -6 c-179 -16 -275 -99 -286 -245 -8 -124 29 -181 120 -181
59 0 161 39 201 78 74 70 280 387 610 939 118 199 244 403 278 455 209 312
457 548 694 663 136 66 228 89 363 90 l113 0 -79 78 c-77 75 -81 77 -128 77
-67 0 -139 -21 -226 -65 -124 -64 -162 -66 -112 -6 36 43 96 76 174 97 96 26
98 37 5 32 -95 -6 -157 -32 -255 -108 -142 -111 -190 -133 -190 -87 0 34 51
99 112 145 74 56 163 98 297 142 l115 38 -90 44 c-176 89 -322 121 -441 98z
m722 -410 l59 -60 -97 0 -97 0 0 60 0 60 38 0 c33 0 45 -8 97 -60z"/>
<path d="M4480 2954 c-25 -7 -55 -13 -67 -13 -30 -1 -29 -19 0 -30 51 -20 52
-23 55 -340 2 -317 -1 -340 -46 -351 -54 -12 -20 -23 81 -25 76 -2 107 1 104
9 -2 6 -12 13 -23 14 -43 8 -44 19 -44 394 0 197 -3 357 -7 357 -5 -1 -28 -7
-53 -15z"/>
<path d="M5753 2963 c-56 -4 -69 -17 -29 -27 32 -8 36 -28 36 -185 l0 -135
-31 30 c-25 24 -39 29 -78 29 -63 0 -110 -36 -148 -112 -24 -50 -28 -69 -28
-143 1 -67 5 -94 23 -127 30 -58 88 -103 132 -103 42 0 96 30 105 59 10 31 25
15 25 -25 l0 -35 57 3 c57 3 82 21 43 31 -11 3 -24 15 -28 28 -5 12 -7 179 -4
371 4 293 3 348 -9 346 -8 -1 -38 -3 -66 -5z m-53 -328 c38 -20 55 -71 55
-175 0 -112 -10 -153 -47 -195 -35 -40 -63 -44 -101 -15 -37 30 -52 82 -51
190 0 108 14 161 51 190 31 24 54 25 93 5z"/>
<path d="M3647 2936 c-124 -46 -192 -142 -218 -308 -22 -140 27 -298 117 -377
100 -88 221 -93 316 -12 42 36 98 115 98 138 0 22 -28 14 -36 -9 -12 -42 -77
-110 -122 -130 -39 -18 -50 -19 -84 -9 -51 16 -114 73 -142 130 -37 73 -49
143 -44 250 9 161 59 264 144 297 41 16 47 16 89 0 55 -21 98 -69 139 -155
l31 -66 3 75 c2 41 0 100 -3 130 l-7 55 -23 -28 -22 -29 -50 26 c-62 33 -135
41 -186 22z"/>
<path d="M1636 2775 c-88 -115 -147 -132 -182 -50 -12 28 -12 27 -19 -39 -9
-85 -1 -204 14 -219 16 -15 42 15 83 97 17 33 55 100 85 149 56 91 67 125 19
62z"/>
<path d="M2681 2765 c-82 -19 -227 -89 -318 -153 -91 -66 -235 -202 -326 -311
-40 -47 -164 -230 -276 -406 -400 -627 -727 -1110 -848 -1253 -110 -129 -226
-141 -343 -35 -34 30 -41 33 -46 19 -12 -30 4 -97 28 -123 90 -97 271 -94 424
6 74 49 291 269 404 411 98 123 192 266 245 370 97 192 305 475 695 945 116
139 117 140 212 188 113 57 195 72 228 42 51 -46 1 -138 -185 -338 -170 -182
-307 -313 -395 -376 -209 -149 -232 -229 -165 -575 38 -200 57 -339 49 -358
-10 -25 -108 -76 -236 -122 -49 -18 -67 -40 -25 -32 12 3 49 8 82 11 89 10
223 43 280 69 97 45 122 92 90 168 -18 45 -39 180 -65 428 -12 107 -23 200
-25 206 -6 21 12 34 170 125 262 150 536 340 605 419 l25 28 -5 319 c-3 202
-9 318 -15 318 -5 0 -16 4 -23 9 -25 15 -174 16 -241 1z"/>
<path d="M4095 2665 c-43 -23 -65 -53 -65 -90 0 -34 20 -60 42 -53 7 3 22 31
33 64 18 54 23 59 52 62 48 5 73 -26 73 -87 0 -57 -3 -61 -109 -116 -68 -36
-78 -45 -95 -86 -24 -58 -16 -111 22 -146 37 -34 110 -29 151 11 l28 27 7 -25
c8 -31 44 -43 95 -30 39 10 45 27 11 32 -33 5 -40 42 -40 217 l0 165 -28 31
c-23 26 -36 31 -87 35 -43 4 -68 1 -90 -11z m130 -351 c-3 -17 -16 -43 -30
-58 -47 -51 -105 -21 -105 54 0 44 17 70 83 122 l52 41 3 -64 c2 -35 1 -78 -3
-95z"/>
<path d="M4779 2673 l-77 -4 -15 -62 c-9 -34 -13 -65 -8 -70 4 -4 21 15 38 42
25 39 40 52 70 60 47 13 93 14 93 2 0 -12 -68 -152 -148 -304 -35 -65 -60
-122 -57 -127 4 -6 71 -10 154 -10 l148 0 12 57 c20 101 11 121 -26 56 -41
-73 -57 -83 -128 -83 -36 0 -65 4 -65 8 0 5 48 102 106 216 58 114 104 209
102 211 -7 7 -125 12 -199 8z"/>
<path d="M5164 2666 c-40 -18 -64 -52 -64 -92 0 -58 54 -70 66 -15 18 79 26
91 64 91 35 0 60 -29 67 -78 8 -57 -9 -79 -95 -120 -87 -42 -112 -71 -119
-134 -14 -123 99 -172 195 -85 22 20 22 20 22 1 0 -39 44 -55 108 -38 30 8 29
34 -2 34 -13 0 -27 7 -30 16 -3 9 -6 88 -7 177 -1 89 -4 173 -8 186 -16 57
-127 89 -197 57z m135 -280 c-4 -93 -23 -133 -72 -150 -50 -18 -85 41 -65 110
6 23 27 47 66 78 31 25 61 45 66 46 4 0 6 -38 5 -84z"/>
<path d="M6070 2669 c-114 -46 -168 -238 -104 -368 72 -144 237 -147 319 -7
96 164 10 388 -150 385 -22 0 -51 -5 -65 -10z m120 -47 c54 -55 76 -196 46
-297 -31 -101 -109 -137 -166 -75 -74 79 -73 297 2 377 31 33 82 31 118 -5z"/>
<path d="M4182 1779 c-13 -5 -45 -32 -73 -60 l-49 -51 -46 41 c-62 54 -127 75
-218 69 -88 -6 -155 -38 -215 -103 -115 -125 -148 -332 -76 -474 22 -44 93
-120 126 -135 11 -5 11 -7 1 -12 -41 -19 -110 -74 -129 -103 -75 -112 -36
-243 84 -281 21 -7 42 -16 46 -20 5 -4 -17 -22 -48 -39 -79 -45 -130 -95 -161
-157 -23 -48 -26 -63 -21 -121 9 -122 87 -188 250 -213 90 -15 244 -8 322 13
125 35 221 111 271 215 22 46 29 75 32 150 6 135 -29 219 -113 267 -50 28 -72
32 -270 45 -265 17 -306 33 -291 115 11 58 57 84 177 101 152 21 229 61 287
150 64 96 85 257 48 379 l-18 59 36 33 c45 41 61 41 82 1 39 -77 87 -98 135
-59 48 38 18 160 -46 189 -30 14 -90 15 -123 1z m-301 -95 c65 -62 101 -224
81 -369 -12 -95 -37 -150 -82 -189 -76 -64 -188 -6 -225 117 -31 104 -27 273
10 360 45 109 147 147 216 81z m161 -1069 c124 -43 154 -175 68 -302 -65 -97
-149 -135 -295 -135 -131 0 -222 41 -256 116 -38 84 -15 194 51 249 43 37 122
76 174 87 58 13 202 4 258 -15z"/>
<path d="M4782 1779 c-294 -48 -459 -484 -301 -797 76 -151 202 -243 336 -245
38 0 86 5 108 13 102 33 203 132 265 257 81 163 80 392 -2 545 -91 171 -240
254 -406 227z m129 -84 c59 -31 115 -125 150 -252 28 -101 30 -285 5 -383 -89
-333 -345 -348 -446 -25 -30 97 -37 262 -17 380 17 97 68 214 110 254 53 49
133 59 198 26z"/>
<path d="M2817 1765 c-96 -26 -170 -101 -184 -188 -7 -44 12 -103 40 -122 55
-38 98 0 122 109 22 96 48 137 98 149 29 7 45 5 81 -12 58 -28 79 -72 84 -172
7 -126 -8 -141 -221 -239 -136 -62 -182 -103 -216 -194 -28 -75 -28 -174 0
-236 41 -92 97 -124 203 -118 85 5 131 25 190 85 l44 44 6 -44 c10 -68 32 -82
130 -81 104 0 156 17 156 49 0 21 -5 24 -47 27 -45 3 -49 6 -68 43 -19 37 -20
66 -25 405 -5 345 -6 367 -25 400 -24 41 -108 95 -162 104 -60 9 -154 5 -206
-9z m241 -625 c-3 -127 -7 -150 -27 -190 -42 -82 -91 -120 -155 -120 -98 0
-147 161 -86 281 19 37 51 65 200 177 l65 49 3 -26 c2 -14 2 -91 0 -171z"/>
<path d="M5474 1763 c-17 -3 -24 -22 -47 -128 -15 -69 -30 -130 -32 -137 -7
-19 11 -42 28 -35 8 3 29 32 47 65 42 79 82 126 126 147 47 22 151 36 201 27
l41 -7 -87 -185 c-48 -102 -121 -248 -163 -325 -42 -77 -105 -197 -139 -267
-52 -106 -60 -130 -49 -143 11 -13 57 -15 326 -15 289 0 313 1 318 18 14 47
55 286 50 293 -16 26 -44 1 -109 -98 -96 -147 -97 -147 -256 -151 -110 -3
-129 -1 -129 12 0 8 99 210 220 449 121 239 220 443 220 454 0 12 -7 24 -16
27 -17 7 -516 6 -550 -1z"/>
<path d="M2400 679 c-134 -8 -224 -24 -360 -65 -94 -29 -297 -111 -305 -124
-6 -9 29 -14 215 -30 344 -30 739 -38 988 -19 150 11 250 25 202 29 -23 1 -23
2 -5 10 19 7 18 8 -5 13 -14 3 -184 15 -379 27 -334 20 -391 27 -391 50 0 15
76 67 126 86 24 9 44 21 44 25 0 5 -1 8 -2 7 -2 0 -59 -4 -128 -9z"/>
</g>
</svg>
